#!OML:ASF E:\emotionWalksFemale\Project 1\Capture day 1\Session 1\Female1.ASF
:FULLY-SPECIFIED
:DEGREES
1049
root -4.95083 15.2889 -33.757 172.573 54.7358 -181.807
lowerback 3.92144 -0.628301 -0.196041
upperback -5.90818 -0.638945 1.0033
thorax -8.39062 -0.202231 1.22886
lowerneck -10.7487 -6.05781 -8.25505
upperneck 18.9684 -8.42127 9.53777
head 8.42034 -3.52983 3.68126
rclavicle -1.17283e-014 1.35174e-014
rhumerus 20.4732 4.99764 -44.008
rradius 26.1679
rwrist 26.2514
rhand -11.4942 -44.9736
rfingers 7.12502
rthumb -165.456 -254.444
lclavicle -1.17283e-014 1.35174e-014
lhumerus 23.056 -13.5412 54.6769
lradius 28.8155
lwrist -32.941
lhand -3.75481 -42.3805
lfingers 7.12502
lthumb 21.9894 -13.6105
rfemur 9.22346 11.6853 20.0761
rtibia 41.2488
rfoot -2.02418 10.9218
rtoes 16.5832
lfemur -6.38246 -26.1633 -17.7753
ltibia 20.6823
lfoot -22.5824 8.51464
ltoes -16.0741
1050
root -4.90399 15.3063 -33.8316 171.944 55.7941 -182.371
lowerback 3.90446 -0.453671 -0.676507
upperback -5.77517 -0.469981 0.792171
thorax -8.23769 -0.103235 1.25635
lowerneck -10.7261 -6.21318 -8.51247
upperneck 18.9402 -8.59967 9.54332
head 8.43689 -3.63725 3.70354
rclavicle -4.75095e-014 -2.8625e-014
rhumerus 20.4292 5.19802 -43.8198
rradius 26.1379
rwrist 25.9543
rhand -10.5502 -45.7514
rfingers 7.12502
rthumb -164.546 -255.154
lclavicle -4.75095e-014 -2.8625e-014
lhumerus 23.2058 -13.5678 54.5537
lradius 28.762
lwrist -32.9587
lhand -3.77291 -42.3287
lfingers 7.12502
lthumb 21.972 -13.5566
rfemur 7.70302 11.8276 19.2278
rtibia 44.0544
rfoot -0.955617 11.3678
rtoes 13.4467
lfemur -5.26284 -25.2246 -18.3612
ltibia 19.9561
lfoot -22.2204 8.15492
ltoes -12.7649
1051
root -4.86235 15.3161 -33.9051 171.692 56.9787 -182.5
lowerback 3.98629 -0.317255 -0.64196
upperback -5.6916 -0.312756 0.516142
thorax -8.20057 -0.0422167 0.929697
lowerneck -10.7714 -6.2805 -8.35604
upperneck 18.9908 -8.68421 9.31441
head 8.4527 -3.68872 3.58801
rclavicle 3.8763e-015 -3.57812e-015
rhumerus 20.4257 5.15388 -44.1057
rradius 25.9505
rwrist 26.1208
rhand -10.2767 -45.8252
rfingers 7.12502
rthumb -164.283 -255.207
lclavicle 3.8763e-015 -3.57812e-015
lhumerus 23.3664 -13.6569 54.01
lradius 28.6494
lwrist -32.6755
lhand -3.79389 -42.1398
lfingers 7.12502
lthumb 21.9519 -13.3653
rfemur 6.0228 11.9816 18.7222
rtibia 46.8719
rfoot -0.691997 11.1034
rtoes 7.33618
lfemur -4.30732 -24.7368 -18.7466
ltibia 19.6081
lfoot -21.326 9.57929
ltoes -20.022
1052
root -4.82251 15.3351 -33.979 171.624 58.1487 -182.374
lowerback 4.31281 -0.225613 -0.668054
upperback -5.73688 -0.200117 0.461011
thorax -8.44434 0.0130113 0.875811
lowerneck -10.7108 -6.29048 -8.44679
upperneck 19.1224 -8.65665 9.11632
head 8.47818 -3.70293 3.54118
rclavicle 1.2424e-014 -1.15295e-014
rhumerus 20.4987 5.58914 -44.0145
rradius 25.8086
rwrist 26.0753
rhand -10.2669 -45.4732
rfingers 7.12502
rthumb -164.273 -254.854
lclavicle 1.2424e-014 -1.15295e-014
lhumerus 23.2464 -13.3396 53.9953
lradius 28.4537
lwrist -33.1449
lhand -3.75725 -42.1068
lfingers 7.12502
lthumb 21.987 -13.3365
rfemur 4.29491 11.5675 18.1647
rtibia 49.5523
rfoot -1.10253 11.1036
rtoes -0.016746
lfemur -3.32547 -24.5985 -19.0572
ltibia 19.3815
lfoot -19.7799 11.8568
ltoes -32.1637
1053
root -4.7869 15.325 -34.0475 171.56 59.2111 -182.377
lowerback 4.36813 -0.147913 -0.696403
upperback -5.71632 -0.111476 0.33078
thorax -8.45647 0.0520113 0.744502
lowerneck -10.6135 -6.35252 -8.59407
upperneck 19.0753 -8.7188 9.08077
head 8.45599 -3.75331 3.54708
rclavicle -9.96905e-014 -1.8487e-014
rhumerus 20.6641 5.47835 -44.3569
rradius 25.5195
rwrist 26.6767
rhand -10.2129 -45.3609
rfingers 7.12502
rthumb -164.221 -254.738
lclavicle -9.96905e-014 -1.8487e-014
lhumerus 23.2625 -12.8224 54.0941
lradius 28.2777
lwrist -33.8251
lhand -3.76384 -42.1115
lfingers 7.12502
lthumb 21.9807 -13.3404
rfemur 2.62898 11.6874 17.8714
rtibia 52.1267
rfoot -1.84098 10.6315
rtoes -5.52296
lfemur -2.52217 -24.6964 -19.3775
ltibia 19.107
lfoot -18.9074 13.2122
ltoes -34.6899
1054
root -4.74724 15.3375 -34.1181 171.495 60.1252 -182.426
lowerback 4.44224 -0.1191 -0.913317
upperback -5.71764 -0.0956815 0.304939
thorax -8.5019 0.0718692 0.837391
lowerneck -10.6183 -6.37784 -8.82407
upperneck 19.0683 -8.71447 9.06162
head 8.4642 -3.77395 3.57813
rclavicle 6.22196e-014 -2.18663e-015
rhumerus 20.6123 4.68097 -45.2259
rradius 25.3421
rwrist 28.3153
rhand -10.0449 -45.235
rfingers 7.12502
rthumb -164.06 -254.599
lclavicle 6.22196e-014 -2.18663e-015
lhumerus 23.1929 -12.2985 54.2692
lradius 28.1056
lwrist -34.1166
lhand -3.82626 -41.8462
lfingers 7.12502
lthumb 21.9208 -13.0681
rfemur 1.00457 11.212 17.3839
rtibia 54.4613
rfoot -2.73937 10.0308
rtoes -13.5345
lfemur -1.81916 -24.9344 -19.767
ltibia 18.9358
lfoot -18.9988 13.8934
ltoes -30.006
1055
root -4.70305 15.3698 -34.1943 171.253 61.0537 -182.548
lowerback 4.54083 -0.111783 -1.02442
upperback -5.63498 -0.111032 0.191553
thorax -8.46989 0.0639775 0.782432
lowerneck -10.6826 -6.27695 -8.91624
upperneck 19.089 -8.57246 9.13042
head 8.47605 -3.70788 3.63265
rclavicle 2.79292e-014 -4.17448e-015
rhumerus 20.8997 4.23654 -45.7737
rradius 25.0268
rwrist 29.2497
rhand -10.1168 -44.9793
rfingers 7.12502
rthumb -164.129 -254.349
lclavicle 2.79292e-014 -4.17448e-015
lhumerus 23.2165 -12.061 53.989
lradius 28.0165
lwrist -33.9138
lhand -3.69107 -41.5612
lfingers 7.12502
lthumb 22.0506 -12.7983
rfemur -0.359767 10.7556 17.0278
rtibia 56.5375
rfoot -3.92269 8.26633
rtoes -21.2521
lfemur -0.914732 -25.4519 -20.3476
ltibia 18.891
lfoot -20.0636 14.008
ltoes -17.9254
1056
root -4.66319 15.3715 -34.2676 171.25 62.0369 -182.484
lowerback 4.63939 -0.108696 -1.07615
upperback -5.63261 -0.118479 0.142337
thorax -8.52533 0.0611602 0.760791
lowerneck -10.7848 -6.20441 -8.8597
upperneck 19.2526 -8.44727 8.93129
head 8.52563 -3.66087 3.56956
rclavicle 4.89507e-014 -1.98785e-016
rhumerus 21.1698 5.35031 -45.0034
rradius 25.1486
rwrist 28.0219
rhand -10.358 -44.9167
rfingers 7.12502
rthumb -164.361 -254.305
lclavicle 4.89507e-014 -1.98785e-016
lhumerus 23.102 -11.6471 54.0207
lradius 27.8933
lwrist -34.0408
lhand -3.57672 -41.7487
lfingers 7.12502
lthumb 22.1604 -12.9989
rfemur -1.90675 10.2576 16.7756
rtibia 58.4092
rfoot -4.84354 6.04644
rtoes -23.6398
lfemur 0.068858 -26.0332 -20.8158
ltibia 18.4503
lfoot -21.0934 14.3835
ltoes -6.42116
1057
root -4.62301 15.3677 -34.3367 171.592 62.923 -182.118
lowerback 4.69062 -0.119532 -1.1122
upperback -5.65994 -0.134973 0.172054
thorax -8.58489 0.0568457 0.814522
lowerneck -10.8356 -6.19161 -8.84056
upperneck 19.3692 -8.4101 8.78791
head 8.56336 -3.65454 3.52161
rclavicle 6.59468e-014 3.30976e-014
rhumerus 21.1416 5.65671 -45.0153
rradius 25.4199
rwrist 27.9412
rhand -10.4633 -44.9551
rfingers 7.12502
rthumb -164.462 -254.351
lclavicle 6.59468e-014 3.30976e-014
lhumerus 22.9811 -11.1469 54.3087
lradius 27.775
lwrist -34.4346
lhand -3.63089 -42.0746
lfingers 7.12502
lthumb 22.1084 -13.3186
rfemur -3.51598 9.91643 16.8177
rtibia 60.0794
rfoot -5.81739 3.81437
rtoes -21.9991
lfemur 0.688544 -26.1922 -21.0692
ltibia 18.2156
lfoot -20.9551 16.2204
ltoes -11.3107
1058
root -4.57663 15.3887 -34.4047 171.813 63.7585 -181.8
lowerback 4.83141 -0.121038 -1.24486
upperback -5.64573 -0.151444 0.199159
thorax -8.65212 0.057362 0.92014
lowerneck -10.8254 -6.10668 -8.89453
upperneck 19.36 -8.30972 8.91255
head 8.55621 -3.60081 3.58569
rclavicle -9.91439e-015 -1.28216e-014
rhumerus 21.5173 5.97246 -45.0043
rradius 25.4055
rwrist 27.8327
rhand -10.1957 -45.2361
rfingers 7.12502
rthumb -164.205 -254.612
lclavicle -9.91439e-015 -1.28216e-014
lhumerus 22.9345 -11.0823 54.2571
lradius 27.8316
lwrist -34.3761
lhand -3.6792 -41.887
lfingers 7.12502
lthumb 22.062 -13.1255
rfemur -4.90444 9.13793 16.7286
rtibia 61.3161
rfoot -6.89079 2.39459
rtoes -19.8618
lfemur 1.39176 -26.4469 -21.4003
ltibia 18.0676
lfoot -20.9017 18.0787
ltoes -16.3035
1059
root -4.53491 15.3791 -34.4688 172.122 64.6264 -181.403
lowerback 4.96079 -0.122721 -1.33425
upperback -5.63525 -0.162494 0.247594
thorax -8.71679 0.0587804 1.02342
lowerneck -10.7866 -5.97226 -8.99953
upperneck 19.306 -8.13899 9.08025
head 8.52547 -3.51538 3.68177
rclavicle -2.91468e-014 -1.07344e-014
rhumerus 21.6838 6.07893 -44.8438
rradius 25.3356
rwrist 27.6915
rhand -9.97041 -45.0604
rfingers 7.12502
rthumb -163.988 -254.419
lclavicle -2.91468e-014 -1.07344e-014
lhumerus 22.876 -11.1608 54.0684
lradius 27.9757
lwrist -34.165
lhand -3.65638 -41.4466
lfingers 7.12502
lthumb 22.0839 -12.6877
rfemur -6.34944 8.37118 16.7357
rtibia 62.3042
rfoot -7.84086 1.29441
rtoes -19.7248
lfemur 2.06966 -26.76 -21.6959
ltibia 18.0046
lfoot -20.8905 19.7515
ltoes -19.4398
1060
root -4.47895 15.4017 -34.5425 172.618 65.327 -180.783
lowerback 4.886 -0.170584 -1.29164
upperback -5.58399 -0.220103 0.30024
thorax -8.61503 0.0277341 1.06194
lowerneck -11.1315 -6.18718 -8.32807
upperneck 19.5254 -8.3919 8.23786
head 8.62037 -3.65886 3.24452
rclavicle 5.40694e-014 1.58531e-014
rhumerus 22.2755 5.67099 -45.2711
rradius 24.8708
rwrist 28.2957
rhand -9.74847 -45.2152
rfingers 7.12502
rthumb -163.774 -254.556
lclavicle 5.40694e-014 1.58531e-014
lhumerus 22.8738 -11.1736 54.0201
lradius 28.0181
lwrist -34.1297
lhand -3.54822 -41.4346
lfingers 7.12502
lthumb 22.1877 -12.688
rfemur -7.37197 7.26198 16.7313
rtibia 62.693
rfoot -8.79357 0.789283
rtoes -18.0985
lfemur 2.7822 -27.0322 -21.9839
ltibia 18.0763
lfoot -20.6579 21.34
ltoes -23.6725
